PathFileType	4	(X/Y/Z)	C:/Users/beibeiliu/ov580/test_trc/User1\sequence.24_training_dense_left.trc
DataRate	CameraRate	NumFrames	NumMarkers	Units	OrigDataRate	OrigDataStartFrame	OrigNumFrames
120	120	9	19	mm	120	51	177
Frame#	Time	ThumbCMC			ThumbMCP			ThumbIP			ThumbTip			IndexMCP			IndexPIP			IndexTip			MiddleMCP			MiddlePIP			MiddleTip			RingMCP			RingPIP			RingTip			PinkyMCP			PinkyPIP			PinkyTip			BackHand1			BackHand2			BackHand3	
		X0	Y0	Z0	X1	Y1	Z1	X2	Y2	Z2	X3	Y3	Z3	X4	Y4	Z4	X5	Y5	Z5	X6	Y6	Z6	X7	Y7	Z7	X8	Y8	Z8	X9	Y9	Z9	X10	Y10	Z10	X11	Y11	Z11	X12	Y12	Z12	X13	Y13	Z13	X14	Y14	Z14	X15	Y15	Z15	X16	Y16	Z16	X17	Y17	Z17	X18	Y18	Z18	
50	0.416667	-190.63	42.8464	35.641	-172.948	40.9125	-0.477611	-162.634	25.1203	-22.6005	-147.193	3.80745	-37.9137	-200.484	-1.00913	-38.9091	-193.344	-17.2391	-60.5812	-190.218	-27.8469	-79.9823	-173.631	-16.8193	-39.6815	-150.918	-12.9652	-59.4391	-124.151	-8.97508	-73.3655	-151.169	-19.8565	-17.9688	-125.501	3.82437	-4.08595	-137.509	17.0978	25.4497	-141.767	-30.8607	-0.377143	-125.417	-9.27573	7.42651	-141.426	10.7161	28.164	-194.572	-29.3912	28.2398	-200.67	-21.3019	60.1882	-213.329	3.09629	33.3937	
51	0.425	-189.747	41.8296	36.2403	-171.397	42.8949	-0.308613	-162.051	22.8423	-21.2645	-147.382	-1.38468	-36.1585	-199.407	-5.65453	-39.0018	-193.503	-16.7356	-60.1351	-188.919	-33.3475	-80.9284	-173.926	-17.9887	-38.5889	-154.717	-12.9395	-57.6053	-120.501	-10.2061	-75.1326	-151.107	-19.1279	-18.0051	-127.362	4.56284	-6.06687	-134.104	13.9246	23.7478	-142.045	-35.8123	2.04735	-127.143	-7.83118	9.75574	-144.833	7.57712	28.9699	-194.025	-29.5751	27.1907	-198.127	-22.8024	62.6026	-214.277	3.50187	33.0756	
52	0.433333	-190.393	36.153	35.7867	-172.774	39.8315	3.77152	-164.04	19.5863	-26.4456	-148.922	-2.51112	-33.7688	-198.701	-8.02692	-36.0607	-193.014	-18.6608	-57.2477	-187.719	-34.943	-78.9293	-171.143	-21.1285	-40.5623	-154.35	-14.8204	-57.7922	-125.226	-7.75127	-74.7421	-149.9	-24.6448	-14.3741	-127.534	2.01716	-6.22876	-135.11	13.8786	24.9687	-141.495	-35.421	2.72793	-127.692	-8.76532	10.99	-143.835	8.18499	35.2199	-192.87	-30.4094	26.8253	-199.291	-24.2322	65.8035	-213.789	1.97845	32.0244	
53	0.441667	-189.838	39.2406	37.2184	-173.712	37.6526	-0.797079	-163.777	20.4038	-25.8647	-150.005	-1.16794	-32.481	-200.062	-7.04167	-35.5975	-194.307	-17.8835	-58.6199	-190.265	-30.7492	-77.1591	-174.354	-17.0033	-41.5698	-152.19	-14.5541	-60.0849	-124.807	-9.92558	-74.1638	-151.805	-19.9744	-17.7218	-127.81	-0.605727	-6.36317	-133.917	15.2746	20.937	-144.942	-34.3674	0.441875	-129.842	-8.99213	8.37631	-143.391	8.33198	30.7787	-194.82	-33.2133	31.6436	-200.562	-23.1539	63.3737	-214.615	3.19444	31.9401	
54	0.45	-191.726	37.4638	32.6596	-173.668	37.6794	1.61491	-164.282	20.5562	-24.7069	-150.45	-1.21222	-32.4452	-200.773	-8.01053	-36.6823	-196.044	-20.2526	-61.1495	-191.631	-32.2614	-77.4979	-174.48	-21.6688	-38.8812	-152.374	-13.9706	-60.0653	-125.942	-8.85279	-76.0039	-151.135	-24.382	-15.3917	-126.411	-0.758377	-3.83149	-135.577	14.2601	21.3634	-142.959	-33.5664	0.0352432	-129.303	-9.99799	8.27802	-145.492	5.88506	30.0218	-195.192	-33.3797	29.1852	-197.938	-23.1967	64.7635	-212.987	3.7801	33.291	
55	0.458333	-190.952	36.4662	34.079	-174.095	37.19	-1.79624	-164.806	18.6659	-22.0412	-149.435	-2.18091	-37.129	-202.117	-7.63537	-34.8262	-196.221	-19.1109	-58.8345	-192.913	-33.6444	-78.7442	-177.081	-19.0051	-39.8925	-155.475	-13.4883	-61.1156	-129.417	-11.708	-73.6764	-155.828	-22.4301	-17.6088	-127.429	1.9761	-4.78665	-136.026	14.6586	21.3056	-144.226	-35.3368	-0.166793	-130.678	-10.6572	5.10885	-145.779	5.70195	33.4652	-196.085	-29.1816	28.5796	-201.289	-20.1113	61.1043	-215.569	3.23706	36.209	
56	0.466667	-193.041	38.2378	32.422	-175.109	39.0258	-1.81389	-165.961	21.2427	-25.6098	-151.008	0.711943	-37.1056	-204.69	-5.89625	-37.8877	-199.351	-15.3205	-59.3833	-195.827	-28.9465	-78.4623	-177.547	-18.5376	-41.4011	-154.663	-14.5189	-60.5029	-127.004	-10.8959	-75.3434	-156.538	-22.0446	-16.9605	-129.168	2.13056	-5.3046	-139.241	17.324	21.6964	-149.693	-34.531	0.240094	-131.659	-10.8957	4.21088	-144.987	7.08484	31.4145	-196.106	-33.2154	26.3331	-202.082	-21.9714	65.0455	-215.075	5.20183	32.0941	
57	0.475	-192.479	39.3474	37.0362	-176.89	39.6495	2.39288	-168.403	18.6108	-21.7397	-155.136	-0.199097	-32.3609	-204.706	-4.89549	-39.6955	-199.356	-17.0897	-58.6594	-196.584	-30.3198	-79.9433	-179.18	-18.861	-40.4382	-160.063	-14.7699	-57.7001	-128.687	-8.38301	-76.4168	-154.017	-18.3348	-18.7224	-131.184	4.40528	-8.55673	-137.406	17.3502	18.5986	-148.39	-33.6735	0.651023	-129.899	-8.17957	7.9949	-143.367	10.2303	30.7615	-195.32	-30.1454	29.4379	-204.223	-17.4441	62.3487	-216.207	4.80916	35.7192	
58	0.483333	-194.612	43.7553	36.4444	-177.975	39.8328	2.23762	-170.292	24.031	-20.9326	-156.931	-0.699471	-33.346	-206.605	-3.6827	-35.7013	-201.105	-14.9291	-56.3917	-198.049	-31.94	-80.5836	-181.754	-17.9245	-37.4459	-158.112	-11.8966	-60.9437	-132.217	-6.29403	-78.1545	-157.409	-20.1387	-17.0255	-131.987	4.32085	-7.27132	-137.604	18.6685	18.3087	-148.01	-32.4747	0.900132	-132.933	-7.32435	5.66254	-147.151	11.3674	31.4066	-198.443	-26.5692	26.4347	-202.421	-17.8691	64.7937	-216.961	4.18256	35.1889	
